<?xml version="1.0" standalone="no"?>
<!DOCTYPE svg PUBLIC "-//W3C//DTD SVG 20010904//EN"
 "http://www.w3.org/TR/2001/REC-SVG-20010904/DTD/svg10.dtd">
<svg version="1.0" xmlns="http://www.w3.org/2000/svg"
 width="635.000000pt" height="635.000000pt" viewBox="0 0 635.000000 635.000000"
 preserveAspectRatio="xMidYMid meet">
<metadata>
Created by potrace 1.14, written by Peter Selinger 2001-2017
</metadata>
<g transform="translate(0.000000,635.000000) scale(0.100000,-0.100000)"
fill="#000000" stroke="none">
<path d="M348 5875 c-2 -2 -18 -5 -36 -8 -89 -14 -209 -103 -254 -189 -52 -99
-49 43 -50 -2469 0 -2173 1 -2349 16 -2403 39 -133 136 -230 272 -269 77 -23
4686 -23 4772 -1 129 34 224 121 272 249 l22 60 1 2330 c0 1282 -3 2353 -7
2380 -16 104 -93 214 -189 269 -99 57 58 54 -2480 54 -1285 0 -2337 -2 -2339
-3z m991 -759 c161 -59 277 -186 309 -341 11 -52 7 -168 -7 -218 -39 -138
-138 -247 -279 -306 -78 -33 -229 -35 -314 -4 -305 113 -406 495 -193 731 26
29 66 65 89 81 44 29 134 67 176 74 52 8 177 -2 219 -17z m2410 -1190 c235
-19 412 -91 542 -219 145 -143 220 -329 265 -657 10 -78 14 -1719 3 -1726 -12
-7 -768 -8 -776 -1 -2 3 -6 342 -8 754 -3 715 -4 774 -20 822 -3 11 -8 33 -11
48 -8 47 -61 147 -99 186 -69 71 -183 109 -311 102 -210 -11 -336 -101 -398
-286 -45 -135 -47 -174 -48 -921 l0 -708 -62 0 c-88 -1 -600 -1 -671 -1 l-60
1 0 1273 0 1274 380 0 380 0 0 -174 c0 -95 3 -173 6 -173 3 0 23 24 43 54 69
100 167 189 274 250 167 94 322 122 571 102z m-2154 -1333 l0 -1273 -55 -1
c-64 0 -710 0 -726 1 -8 0 -11 363 -11 1273 l0 1274 396 0 396 0 0 -1274z"/>
<path d="M5875 1205 c-197 -59 -308 -261 -251 -457 53 -184 244 -296 431 -253
179 41 287 182 282 369 -2 70 -7 91 -35 148 -77 158 -264 242 -427 193z m208
-51 c80 -28 146 -90 185 -174 21 -44 26 -70 26 -130 -1 -126 -64 -228 -177
-288 -45 -23 -63 -27 -142 -27 -78 0 -97 4 -140 27 -66 35 -119 89 -153 157
-22 46 -27 69 -26 126 1 85 5 101 41 166 43 80 118 134 213 155 59 13 112 9
173 -12z"/>
<path d="M5846 1041 c-8 -13 -2 -381 6 -382 43 -7 43 -7 48 81 l5 85 30 0 c27
0 36 -10 86 -85 45 -69 60 -84 82 -85 15 -1 27 2 27 7 0 5 -22 42 -50 83 -27
41 -50 76 -50 79 0 2 13 7 30 11 36 8 70 59 70 107 0 46 -31 85 -78 97 -40 11
-200 12 -206 2z m207 -59 c21 -18 22 -60 2 -86 -12 -15 -30 -20 -85 -23 l-70
-3 0 66 0 65 68 -2 c43 -1 73 -7 85 -17z"/>
</g>
</svg>
